<?xml version="1.0" encoding="UTF-8"?>
<svg version="1.1" xmlns="http://www.w3.org/2000/svg" width="500" height="500">
<path d="M0 0 C165 0 330 0 500 0 C500 165 500 330 500 500 C335 500 170 500 0 500 C0 335 0 170 0 0 Z " fill="#030303" transform="translate(0,0)"/>
<path d="M0 0 C165 0 330 0 500 0 C500 165 500 330 500 500 C335 500 170 500 0 500 C0 335 0 170 0 0 Z M209.3125 88.75 C206.23186166 90.54119427 205.18693253 91 201.5 91 C199.66242458 90.47497845 197.82536928 89.93431262 196.03662109 89.26147461 C190.30555675 87.12623107 185.21880284 86.48842908 179.125 86.5625 C178.24730957 86.57007324 177.36961914 86.57764648 176.46533203 86.58544922 C167.39286001 86.81557858 160.85944635 88.99338915 153.4375 94.1875 C148.03850022 97.62946965 143.08747233 97.52911272 136.88549805 97.68408203 C119.34960154 98.20417603 104.88644581 106.58163029 92 118 C91.40058594 118.52851562 90.80117187 119.05703125 90.18359375 119.6015625 C61.53536062 146.58806517 45.9770148 189.82830812 36.53125 226.94287109 C36.00352681 228.98634334 35.44410312 231.01847891 34.875 233.05078125 C27.42269322 259.95413594 21.92521098 287.37388167 18 315 C17.84160645 316.10859375 17.68321289 317.2171875 17.52001953 318.359375 C16.68311156 324.32673602 15.93242946 330.29594949 15.29638672 336.28808594 C15.09886828 338.09536339 14.88434204 339.90086324 14.65283203 341.70410156 C12.91853907 353.26307546 12.91853907 353.26307546 17.3125 363.625 C18.83033139 365.12976916 20.39455823 366.58907864 22 368 C23.08861328 369.1446875 23.08861328 369.1446875 24.19921875 370.3125 C37.17125408 383.35060682 57.20344028 389.73575274 75.125 391.8125 C80.73079514 392.67493002 83.90540059 395.94275821 88.0546875 399.61328125 C103.08873773 411.79604609 121.40825408 413.62389877 140 412 C149.45816612 410.63165313 158.86282836 408.52855021 167.8515625 405.26953125 C173.08654242 403.50320128 175.59466192 404.34904253 180.609375 406.671875 C181.99002211 407.36370838 183.37020557 408.05646759 184.75 408.75 C206.37354121 419.22309989 230.45893885 423.22494509 254.3125 423.1875 C255.37439041 423.18659363 255.37439041 423.18659363 256.45773315 423.18566895 C281.09467067 423.12866555 307.17980799 421.05180377 328.1875 406.875 C335.12028692 402.96091735 340.20477538 404.44021773 347.55712891 406.20703125 C361.39376428 409.4771953 377.1814426 409.58606585 391 406 C392.258125 405.68160156 393.51625 405.36320312 394.8125 405.03515625 C404.69980274 402.33658191 414.61578979 398.38421021 422 391 C424.31205467 390.37052447 426.59945791 389.82425307 428.9375 389.3125 C447.26099162 384.9794267 467.54004154 378.48556139 478.375 361.89453125 C484.90131866 349.48972702 483.24141505 338.24694771 480.1875 325.0625 C480.03516907 324.39793793 479.88283813 323.73337585 479.72589111 323.04867554 C468.1179244 272.77346005 448.34333311 223.3880393 426 177 C425.71789673 176.41152283 425.43579346 175.82304565 425.1451416 175.21673584 C404.96865764 130.52976234 404.96865764 130.52976234 366.4765625 103.1796875 C363.52434285 102.17792308 360.67348275 101.379052 357.625 100.75 C356.42875 100.5025 355.2325 100.255 354 100 C353.67 99.34 353.34 98.68 353 98 C351.56195268 98.11853752 350.12459 98.24537135 348.6875 98.375 C347.31464844 98.49488281 347.31464844 98.49488281 345.9140625 98.6171875 C343.00432498 98.93025685 343.00432498 98.93025685 340.2734375 99.7578125 C336.09445107 100.90191541 333.3163472 101.6071084 329.28125 99.74609375 C327.4401215 98.52132005 325.62506699 97.25658519 323.8359375 95.95703125 C314.1308628 89.25972763 302.65427394 86.70358019 291 88 C287.27671645 89.1901979 283.71915278 90.55763396 280.12890625 92.1015625 C276.35489 93.18523758 275.42065582 92.77521137 272 91 C269.42002569 89.9899675 266.83761563 88.98995901 264.25 88 C263.58484375 87.73960938 262.9196875 87.47921875 262.234375 87.2109375 C253.3145451 83.81454073 245.09977703 82.65602384 235.5625 82.6875 C234.58990234 82.67138672 233.61730469 82.65527344 232.61523438 82.63867188 C224.18686296 82.6330417 216.42954776 83.99597988 209.3125 88.75 Z " fill="#FEFEFE" transform="translate(0,0)"/>
<path d="M0 0 C1.33417969 -0.00483398 1.33417969 -0.00483398 2.6953125 -0.00976562 C9.95049275 0.04891598 17.05910826 0.37078586 22.625 5.5625 C23.24890625 6.12453125 23.8728125 6.6865625 24.515625 7.265625 C28.48084087 11.63069457 30.91015759 16.15274581 32.7421875 21.73046875 C33.35344482 23.58986084 33.35344482 23.58986084 33.97705078 25.48681641 C34.40276568 26.82409988 34.82704524 28.16184099 35.25 29.5 C35.46976501 30.18777527 35.68953003 30.87555054 35.91595459 31.58416748 C39.89340246 44.08538744 42.96839673 56.66359044 45.59033203 69.51953125 C46.47611764 73.80128769 47.40364262 78.07279075 48.33984375 82.34375 C51.945549 98.80992762 55.49518877 115.28462426 58.69921875 131.83447266 C59.19470843 134.38459767 59.69465942 136.93360519 60.19921875 139.48193359 C64.32752353 160.3567555 67.96308317 181.15870012 70.375 202.3125 C70.49214355 203.31265137 70.60928711 204.31280273 70.72998047 205.34326172 C71.95114867 216.01442101 72.57424525 226.63359625 72.6875 237.375 C72.71408691 238.90229736 72.71408691 238.90229736 72.74121094 240.46044922 C72.7318981 249.63824809 72.7318981 249.63824809 69.375 253.3125 C59.82190605 259.78174009 48.49882139 262.80256996 37.375 265.3125 C36.6634375 265.47766113 35.951875 265.64282227 35.21875 265.81298828 C13.11994848 270.72326886 -11.54633579 269.8656112 -33.625 265.3125 C-34.30369141 265.17328125 -34.98238281 265.0340625 -35.68164062 264.890625 C-46.70618772 262.51644537 -59.15804408 258.62380395 -68.625 252.3125 C-68.99731445 249.30102539 -68.99731445 249.30102539 -68.98828125 245.41015625 C-68.98968613 244.70985794 -68.991091 244.00955963 -68.99253845 243.28804016 C-68.99116157 240.98327451 -68.96581051 238.67958241 -68.9375 236.375 C-68.93190063 235.58385803 -68.92630127 234.79271606 -68.92053223 233.9776001 C-68.75227231 210.33469514 -66.41409199 187.03199567 -63.42173767 163.60348511 C-62.80920787 158.80202725 -62.22354427 153.99794204 -61.65234375 149.19140625 C-59.59527532 131.98540857 -57.10139317 114.89564237 -54.21435547 97.81005859 C-53.67524454 94.61067868 -53.15002214 91.40938101 -52.62890625 88.20703125 C-50.35962687 74.472968 -47.44242579 60.91600044 -44.31689453 47.35302734 C-43.69759095 44.63150059 -43.10542411 41.90630003 -42.52734375 39.17578125 C-39.59800447 25.54678274 -34.65147427 14.11755428 -23.75 4.875 C-16.00026882 1.00013441 -8.59402989 -0.15705464 0 0 Z " fill="#93D7A7" transform="translate(253.625,141.6875)"/>
<path d="M0 0 C3.97403198 1.97258246 7.66211433 4.14193039 11.3515625 6.6015625 C9.44979986 10.87321398 6.54428339 14.05607318 3.51953125 17.578125 C-1.82050145 25.02530574 -4.5601516 32.78454009 -6.5234375 41.6640625 C-6.7711792 42.74872803 -7.0189209 43.83339355 -7.27416992 44.95092773 C-7.805463 47.29652134 -8.32991998 49.64367201 -8.84814453 51.9921875 C-9.63345798 55.53400388 -10.4501709 59.06748941 -11.26953125 62.6015625 C-19.78482974 100.18512905 -25.16446472 138.55333759 -29.91464233 176.7743988 C-30.78310413 183.74839572 -31.74783369 190.70853074 -32.74951172 197.66455078 C-34.62245278 211.02600397 -34.92603311 224.38314345 -35.2109375 237.8515625 C-35.25422595 239.77214291 -35.29784315 241.69271595 -35.34179688 243.61328125 C-35.44779966 248.27596526 -35.54935701 252.93872647 -35.6484375 257.6015625 C-54.44903319 265.90989339 -77.57680406 270.30302901 -97.4609375 263.86328125 C-105.56181 260.65668589 -115.34266022 255.31645197 -119.84375 247.53515625 C-122.89145241 236.42435766 -121.35568552 222.8679643 -117.98046875 212.0625 C-116.249996 206.51805999 -115.01909524 200.85225478 -113.72390747 195.19360352 C-112.96809272 191.8932312 -112.20239699 188.59515204 -111.4375 185.296875 C-111.28593948 184.64233337 -111.13437897 183.98779175 -110.97822571 183.31341553 C-109.33542975 176.22919284 -107.62998262 169.16043759 -105.9206543 162.09204102 C-104.39260057 155.75459129 -102.90635467 149.40865746 -101.44439697 143.05563354 C-98.67502725 131.02790275 -95.90161163 119.02323267 -92.40429688 107.18261719 C-91.49270033 104.06976232 -90.61176351 100.94858697 -89.7265625 97.828125 C-66.40224854 16.72541169 -66.40224854 16.72541169 -34.6796875 -2.59765625 C-25.56850846 -6.18956337 -9.05415414 -3.47043596 0 0 Z " fill="#93D7A7" transform="translate(206.6484375,132.3984375)"/>
<path d="M0 0 C30.94167973 24.875482 44.6098816 65.61876959 54.34765625 102.83984375 C55.29110284 106.43195502 56.28565033 110.00497223 57.32568359 113.57006836 C61.10261991 126.52796458 64.40955633 139.55027204 67.5 152.6875 C67.98149102 154.717615 68.46334693 156.74764348 68.94555664 158.77758789 C71.72779805 170.50954614 74.46316816 182.25182057 77.13574219 194.00927734 C78.38732739 199.48147563 79.74741726 204.9041856 81.25 210.3125 C83.02669248 216.83444198 84.25638645 223.28183618 85 230 C85.14308594 230.99257813 85.28617188 231.98515625 85.43359375 233.0078125 C85.79256455 237.06142121 85.96084009 239.78047219 83.375 243.0625 C70.51383949 253.71889013 53.8182269 257.20372023 37.5625 257.125 C36.76779297 257.12886719 35.97308594 257.13273437 35.15429688 257.13671875 C25.6153746 257.12119569 17.15520804 255.7208936 8 253 C8.01047363 252.41847168 8.02094727 251.83694336 8.03173828 251.23779297 C8.83402655 199.33278875 -2.96318133 147.30942513 -14.25 96.88671875 C-16.08561381 88.67569969 -17.82146816 80.44481305 -19.54641724 72.20993042 C-20.05726104 69.77497172 -20.571036 67.3406494 -21.08569336 64.90649414 C-22.50226715 58.19814089 -23.91358496 51.49000479 -25.23893738 44.76293945 C-25.62065953 42.83080431 -26.01031659 40.90024221 -26.40014648 38.96972656 C-26.86286791 36.67497738 -27.31291488 34.37761131 -27.74633789 32.07714844 C-29.82645683 21.89278396 -33.52107475 12.42702297 -41.375 5.375 C-42.94336994 3.94542386 -44.49347859 2.49461215 -46 1 C-46 0.34 -46 -0.32 -46 -1 C-44.58671871 -1.81837442 -43.16921654 -2.62946219 -41.75 -3.4375 C-40.56664062 -4.11619141 -40.56664062 -4.11619141 -39.359375 -4.80859375 C-27.91241524 -10.58892939 -10.13789304 -6.93068923 0 0 Z " fill="#93D6A7" transform="translate(331,138)"/>
<path d="M0 0 C0.99 1.485 0.99 1.485 2 3 C1.33355469 3.48726562 0.66710937 3.97453125 -0.01953125 4.4765625 C-12.76023154 14.27710118 -21.32412451 27.03077068 -29 41 C-29.33064453 41.59941406 -29.66128906 42.19882813 -30.00195312 42.81640625 C-46.02664158 72.31712495 -55.81051701 105.83894072 -64.04736328 138.25537109 C-64.74222912 140.98675303 -65.443472 143.71597862 -66.15185547 146.44384766 C-71.17353093 165.79815195 -75.82848697 185.15281507 -79.58447266 204.79467773 C-81.24357826 213.44113475 -83.18286138 221.97119 -85.375 230.5 C-87.97185333 240.69351934 -88.97496095 250.49611953 -89 261 C-104.61207135 258.98426421 -119.96278411 253.70350451 -131 242 C-136.16385238 234.25422143 -132.44918412 221.3294136 -131.375 212.4375 C-131.28796814 211.70578583 -131.20093628 210.97407166 -131.11126709 210.22018433 C-123.30469741 145.182084 -108.95999755 52.90086749 -56 8 C-38.99210148 -3.88860568 -19.51363235 -10.92640297 0 0 Z " fill="#93D6A6" transform="translate(161,116)"/>
<path d="M0 0 C6.07821988 5.03272506 9.92560081 12.31672228 13.75390625 19.10546875 C14.51489624 20.4502832 14.51489624 20.4502832 15.29125977 21.82226562 C45.61228766 75.92547811 93.87209783 162.13828661 89.31640625 225.91796875 C85.89940801 235.48556382 78.01020949 240.52089303 69.31640625 244.91796875 C57.96847998 249.91796875 57.96847998 249.91796875 52.31640625 249.91796875 C52.13053955 249.22461426 51.94467285 248.53125977 51.75317383 247.81689453 C50.87924033 244.55869808 50.00407257 241.30083426 49.12890625 238.04296875 C48.83693359 236.95371094 48.54496094 235.86445313 48.24414062 234.7421875 C47.94443359 233.62714844 47.64472656 232.51210938 47.3359375 231.36328125 C47.0169751 230.17621582 46.6980127 228.98915039 46.36938477 227.76611328 C45.63117918 225.06831675 44.87877974 222.37844554 44.10522461 219.69091797 C41.22807348 209.64874764 38.867714 199.58373068 36.77844238 189.35049438 C33.26370203 172.2133746 29.30077238 155.2031963 25.06640625 138.23046875 C24.81623749 137.21925964 24.56606873 136.20805054 24.30831909 135.16619873 C21.70017016 124.64844861 18.96787284 114.2648226 15.37280273 104.03735352 C14.30992763 100.89883833 13.44711498 97.75302551 12.62890625 94.54296875 C1.51721281 54.90976259 -18.44042338 16.96985281 -54.68359375 -4.08203125 C-52.10437476 -6.14310357 -49.79362609 -7.60151194 -46.68359375 -8.70703125 C-46.02359375 -8.94679688 -45.36359375 -9.1865625 -44.68359375 -9.43359375 C-29.22516906 -14.44550488 -13.46218509 -7.60906114 0 0 Z " fill="#92D6A6" transform="translate(379.68359375,124.08203125)"/>
<path d="M0 0 C0.83047852 0.00797607 1.66095703 0.01595215 2.51660156 0.02416992 C11.89353444 0.23993042 20.29471046 2.3395209 28.75 6.375 C27.450625 7.86 27.450625 7.86 26.125 9.375 C21.10586823 15.27778173 17.10955229 20.44778835 14.1875 27.6875 C12.38466268 31.48496584 11.49181211 33.02282658 7.65625 34.84375 C2.50980868 36.09558708 -2.10882914 36.98840809 -7.25 35.375 C-9.6796875 33.8515625 -9.6796875 33.8515625 -12.125 32 C-16.21993929 28.90575327 -19.26674913 27.51067895 -24.25 25.375 C-24.25 19.435 -24.25 13.495 -24.25 7.375 C-15.65506883 2.46361076 -9.85448021 -0.17146074 0 0 Z " fill="#92D5A6" transform="translate(235.25,95.625)"/>
<path d="M0 0 C0.99 0.66 1.98 1.32 3 2 C1.24302834 7.27091497 -3.34748112 10.21228149 -8 13 C-10.77126248 13.58405968 -13.31364945 13.68602689 -16.140625 13.75390625 C-23.59551919 14.395516 -30.00698249 17.897528 -35.375 22.9375 C-38.40577876 25.53691099 -39.59434201 26 -43.66796875 26 C-47.17200988 25.49389978 -50.56561912 24.85493123 -54 24 C-50.64267109 14.0693745 -40.11359995 4.4733402 -30.875 -0.3125 C-29.59142383 -0.89322475 -28.30021871 -1.45756075 -27 -2 C-26.030625 -2.4125 -25.06125 -2.825 -24.0625 -3.25 C-15.39687173 -5.37219468 -8.14194063 -3.34968729 0 0 Z " fill="#90D3A4" transform="translate(314,105)"/>
<path d="M0 0 C2.71875 1.3828125 2.71875 1.3828125 6.65625 3.8828125 C6.65625 7.8428125 6.65625 11.8028125 6.65625 15.8828125 C3.75737882 15.84969975 0.86608378 15.78243356 -2.03125 15.6953125 C-3.25618164 15.68661133 -3.25618164 15.68661133 -4.50585938 15.67773438 C-8.77615084 15.52213671 -10.73286542 15.39651089 -14.09375 12.5703125 C-14.83625 11.6834375 -15.57875 10.7965625 -16.34375 9.8828125 C-18.08349883 8.5697466 -19.8538408 7.29595076 -21.65625 6.0703125 C-22.53925781 5.46574219 -23.42226562 4.86117187 -24.33203125 4.23828125 C-24.99589844 3.79097656 -25.65976563 3.34367187 -26.34375 2.8828125 C-20.55851245 -3.45340006 -7.7201369 -2.57939153 0 0 Z " fill="#8FD1A2" transform="translate(191.34375,101.1171875)"/>
</svg>
